<?xml version="1.0" standalone="no"?>
<!DOCTYPE svg PUBLIC "-//W3C//DTD SVG 20010904//EN"
 "http://www.w3.org/TR/2001/REC-SVG-20010904/DTD/svg10.dtd">
<svg version="1.0" xmlns="http://www.w3.org/2000/svg"
 width="96.000000pt" height="96.000000pt" viewBox="0 0 96.000000 96.000000"
 preserveAspectRatio="xMidYMid meet">
<metadata>
Created by potrace 1.14, written by Peter Selinger 2001-2017
</metadata>
<g transform="translate(0.000000,96.000000) scale(0.100000,-0.100000)"
fill="#000000" stroke="none">
<path d="M380 898 c-68 -11 -130 -30 -130 -38 0 -5 8 -7 18 -6 32 5 101 -25
146 -65 56 -49 84 -106 92 -189 7 -81 25 -120 74 -164 82 -73 198 -73 280 0
51 46 70 90 70 161 0 105 -83 206 -214 263 -94 40 -233 56 -336 38z"/>
<path d="M197 800 c-54 -10 -116 -57 -144 -109 -83 -157 51 -340 289 -396 82
-19 244 -14 318 10 l55 18 -57 16 c-120 34 -190 117 -203 239 -3 35 -11 75
-16 89 -36 96 -137 151 -242 133z"/>
<path d="M797 279 c-14 -8 -17 -25 -17 -98 0 -80 2 -89 20 -94 16 -4 20 0 20
19 0 29 7 30 28 4 16 -19 62 -36 62 -23 0 3 -14 23 -32 45 l-32 41 26 22 c38
32 22 40 -19 9 l-33 -25 3 51 c3 57 0 63 -26 49z"/>
<path d="M84 260 c-47 -19 -68 -85 -43 -132 6 -11 26 -26 45 -34 108 -45 200
72 116 148 -33 29 -75 36 -118 18z m92 -32 c11 -18 7 -97 -6 -113 -14 -17 -48
-19 -68 -6 -20 12 -30 71 -19 104 15 45 69 54 93 15z"/>
<path d="M408 238 c-18 -19 -23 -31 -14 -34 7 -3 11 -22 11 -50 -2 -61 14 -82
49 -66 17 7 34 9 44 4 9 -5 31 -8 47 -6 17 1 36 3 43 3 8 1 12 20 12 59 0 51
-3 60 -22 69 -29 13 -68 7 -88 -13 -13 -13 -13 -16 0 -24 17 -11 30 -4 30 16
0 19 26 18 34 -2 8 -22 9 -21 -19 -28 -14 -4 -35 -18 -47 -31 -33 -38 -44 -31
-43 22 0 29 5 48 12 48 6 0 15 3 19 8 4 4 0 7 -9 7 -9 0 -18 5 -18 10 -3 25
-4 29 -9 33 -3 3 -17 -8 -32 -25z m149 -108 c1 -14 -4 -20 -18 -20 -21 0 -26
25 -6 33 21 9 23 8 24 -13z"/>
<path d="M304 222 c-51 -8 -75 -82 -39 -118 26 -26 71 -25 96 2 26 28 18 45
-9 21 -10 -10 -23 -17 -29 -17 -31 0 -49 74 -22 91 20 13 29 11 29 -5 0 -20
30 -29 36 -11 11 27 -17 44 -62 37z"/>
<path d="M664 222 l-40 -3 -2 -64 c-1 -65 -2 -65 36 -65 4 0 6 20 5 45 -1 28
4 48 13 56 21 17 29 4 30 -49 3 -63 2 -61 22 -58 12 2 18 14 20 41 7 80 -12
103 -84 97z"/>
</g>
</svg>
